<svg width="48" height="48" viewBox="0 0 48 48" fill="none" xmlns="http://www.w3.org/2000/svg">
<path fill-rule="evenodd" clip-rule="evenodd" d="M47.7612 23.9993C47.7612 37.2542 37.0696 47.9993 23.8806 47.9993C10.6916 47.9993 0 37.2542 0 23.9993C0 10.7443 10.6916 -0.000732422 23.8806 -0.000732422C37.0696 -0.000732422 47.7612 10.7443 47.7612 23.9993Z" fill="#F7931A"/>
<path fill-rule="evenodd" clip-rule="evenodd" d="M29.6786 31.0134C29.4787 31.6886 29.029 32.2449 28.4124 32.5799C27.7958 32.9154 27.0866 32.9894 26.4148 32.7882L19.6898 30.7754L21.1881 25.7202L27.9126 27.7334H27.9128C29.2993 28.1483 30.0917 29.6198 29.6786 31.0134ZM31.9467 20.6538C32.2801 21.2735 32.3537 21.9863 32.1538 22.6617C31.7407 24.0549 30.2758 24.8507 28.89 24.4365H28.8898L22.165 22.4236L23.6628 17.3685L30.3878 19.3814C31.0596 19.5825 31.6131 20.0342 31.9467 20.6538ZM34.9571 19.017C34.1884 17.5893 32.9125 16.5477 31.3648 16.0845L30.475 15.8183L31.7206 11.615L28.5247 10.6583L27.279 14.8617L24.5505 14.045L25.7963 9.8416L25.0307 9.6124L21.9291 8.68408L20.7284 12.7358L16.9485 11.6044L15.8818 15.2044L19.6616 16.336L15.7784 29.4395L11.9986 28.3082L10.9318 31.9084L14.7114 33.0395L13.6982 36.4593L14.4635 36.6885L17.5651 37.6168L18.6235 34.0454L21.3586 34.864L20.3002 38.4357L23.4832 39.3885L24.5416 35.8168L25.4376 36.0849C26.0088 36.2558 26.5922 36.3405 27.1721 36.3405C28.1631 36.3405 29.1448 36.093 30.0411 35.6056C31.4617 34.833 32.4979 33.551 32.959 31.995C33.4438 30.3585 33.2045 28.6773 32.4334 27.2934C33.8333 26.5593 34.9488 25.2808 35.434 23.6435C35.8952 22.0876 35.7256 20.4446 34.9571 19.017Z" fill="white"/>
</svg>
