<svg width="48" height="48" viewBox="0 0 48 48" fill="none" xmlns="http://www.w3.org/2000/svg">
<path fill-rule="evenodd" clip-rule="evenodd" d="M23.8806 47.6795C10.7126 47.6795 0 38.3582 0 26.9003C0 15.4424 10.7126 6.12109 23.8806 6.12109C37.0484 6.12109 47.7612 15.4424 47.7612 26.9003C47.7612 38.3582 37.0484 47.6795 23.8806 47.6795Z" fill="#74C4EE"/>
<path fill-rule="evenodd" clip-rule="evenodd" d="M23.8806 7.39355C11.5193 7.39355 1.46243 16.1443 1.46243 26.9C1.46243 37.656 11.5193 46.4067 23.8806 46.4067C36.2419 46.4067 46.2985 37.656 46.2985 26.9C46.2985 16.1443 36.2419 7.39355 23.8806 7.39355Z" fill="white"/>
<path fill-rule="evenodd" clip-rule="evenodd" d="M21.7706 31.4844C22.2681 31.7742 22.8386 31.9847 23.4454 32.088V41.5583C19.8585 41.3796 16.5957 40.1329 14.0768 38.1792L21.7706 31.4844Z" fill="#0D568D"/>
<path fill-rule="evenodd" clip-rule="evenodd" d="M26.9457 31.4844L34.6395 38.1792C32.1206 40.1329 28.8578 41.3796 25.2709 41.5583V32.088C25.8777 31.9847 26.4482 31.7742 26.9457 31.4844Z" fill="#1B7EAD"/>
<path fill-rule="evenodd" clip-rule="evenodd" d="M28.9307 28.9036H39.8146C39.6092 32.0246 38.1763 34.8597 35.9311 37.0515L28.237 30.3569C28.5701 29.924 28.812 29.4318 28.9307 28.9036Z" fill="#1B7EAD"/>
<path fill-rule="evenodd" clip-rule="evenodd" d="M19.7856 28.9036C19.9042 29.4318 20.1462 29.924 20.4793 30.3569L12.7852 37.0515C10.5399 34.8597 9.10711 32.0246 8.90173 28.9036H19.7856Z" fill="#0D568D"/>
<path fill-rule="evenodd" clip-rule="evenodd" d="M34.6396 18.0393L26.9457 24.7342C26.4483 24.4404 25.8778 24.2338 25.271 24.1305V14.6562C28.8578 14.835 32.1206 16.0817 34.6396 18.0393Z" fill="#74C4EE"/>
<path fill-rule="evenodd" clip-rule="evenodd" d="M39.8146 27.3152H28.9308C28.8121 26.787 28.5702 26.2947 28.237 25.8579L35.9311 19.1631C38.1764 21.3551 39.6092 24.1902 39.8146 27.3152Z" fill="#4CA1D6"/>
<path fill-rule="evenodd" clip-rule="evenodd" d="M22.6842 23.6848V23.6983L22.6753 23.6892C22.6798 23.6848 22.6842 23.6848 22.6842 23.6848Z" fill="#103D54"/>
<path fill-rule="evenodd" clip-rule="evenodd" d="M20.4792 25.8578C20.1461 26.2945 19.9042 26.787 19.7855 27.315H8.90167V15.748L20.4792 25.8578Z" fill="#024E7B"/>
<path fill-rule="evenodd" clip-rule="evenodd" d="M23.4454 14.6562V24.1305C23.1808 24.1741 22.9208 24.2417 22.6696 24.325C22.6696 24.325 22.665 24.325 22.6605 24.3291C22.3503 24.4322 22.0537 24.5673 21.7798 24.73L8.90167 13.5246V0L23.4454 14.6562Z" fill="#024E7B"/>
<path fill-rule="evenodd" clip-rule="evenodd" d="M22.6842 23.6848V23.6983L22.6753 23.6892C22.6798 23.6848 22.6842 23.6848 22.6842 23.6848Z" fill="#525252"/>
</svg>
