<svg width="48" height="48" viewBox="0 0 48 48" fill="none" xmlns="http://www.w3.org/2000/svg">
<path fill-rule="evenodd" clip-rule="evenodd" d="M47.7612 23.8806C47.7612 37.0696 37.0696 47.7612 23.8806 47.7612C10.6916 47.7612 0 37.0696 0 23.8806C0 10.6916 10.6916 0 23.8806 0C37.0696 0 47.7612 10.6916 47.7612 23.8806Z" fill="black"/>
<path fill-rule="evenodd" clip-rule="evenodd" d="M7.13516 20.7496V17.1821C7.13516 16.9086 7.35677 16.6868 7.63021 16.6868H18.2134C18.4868 16.6868 18.7087 16.9086 18.7087 17.1821V20.7496C18.7087 21.0232 18.4868 21.2449 18.2134 21.2449H7.63021C7.35677 21.2449 7.13516 21.0232 7.13516 20.7496Z" fill="#EFCA0C"/>
<path fill-rule="evenodd" clip-rule="evenodd" d="M10.7935 28.2135V26.3106C10.7935 26.1089 10.9571 25.9455 11.1586 25.9455H19.2678C19.4693 25.9455 19.6329 26.1089 19.6329 26.3106V28.2135C19.6329 28.4152 19.4693 28.5784 19.2678 28.5784H11.1586C10.9571 28.5784 10.7935 28.4152 10.7935 28.2135ZM19.6329 17.0158V21.9582C19.6329 22.1397 19.4853 22.2872 19.3038 22.2872H10.7935H7.46407C7.28234 22.2872 7.13524 22.4343 7.13524 22.6161V25.9455V28.5784V31.908C7.13524 32.0895 7.28234 32.2371 7.46407 32.2371H10.7935H19.6329H22.6851H22.9623C23.1438 32.2371 23.2912 32.0895 23.2912 31.908V17.0158C23.2912 16.8341 23.1438 16.6868 22.9623 16.6868H19.9617C19.78 16.6868 19.6329 16.8341 19.6329 17.0158Z" fill="#FDFDFD"/>
<path fill-rule="evenodd" clip-rule="evenodd" d="M28.129 28.228V20.6954C28.129 20.5019 28.2859 20.345 28.4793 20.345H40.2763C40.4698 20.345 40.6267 20.1884 40.6267 19.9947V17.0371C40.6267 16.8434 40.4698 16.6868 40.2763 16.6868H28.129H24.8208C24.6274 16.6868 24.4707 16.8434 24.4707 17.0371V20.345V28.5783V31.8863C24.4707 32.08 24.6274 32.2369 24.8208 32.2369H28.129H36.9684H40.0206H40.2763C40.4698 32.2369 40.6267 32.08 40.6267 31.8863V25.9453V22.6373C40.6267 22.4437 40.4698 22.287 40.2763 22.287H36.9684H31.0751C30.8815 22.287 30.7248 22.4437 30.7248 22.6373V25.5952C30.7248 25.7886 30.8815 25.9453 31.0751 25.9453H36.6178C36.8113 25.9453 36.9684 26.1024 36.9684 26.2956V28.228C36.9684 28.4217 36.8113 28.5783 36.6178 28.5783H28.4793C28.2859 28.5783 28.129 28.4217 28.129 28.228Z" fill="#FDFDFD"/>
</svg>
