<svg width="48" height="48" viewBox="0 0 48 48" fill="none" xmlns="http://www.w3.org/2000/svg">
<path fill-rule="evenodd" clip-rule="evenodd" d="M23.8812 4.50936C22.2879 6.25656 21.1259 8.4396 20.5979 10.919C20.5009 11.3734 20.4295 11.8274 20.3786 12.2839C19.5557 8.6412 15.9586 6.324 12.3111 7.10472C10.531 7.48704 9.00693 8.54376 8.01756 10.0778C7.02842 11.6119 6.69195 13.4426 7.07236 15.2316C7.6049 17.7386 9.44275 19.6272 11.7207 20.3434H11.7231H11.7253C12.8044 20.6794 13.9782 20.7511 15.1586 20.4986C17.0263 20.0952 18.8639 21.2935 19.2629 23.1703C19.6639 25.0474 18.472 26.8944 16.6043 27.2974C16.5697 27.3043 16.5329 27.3139 16.4983 27.3182C16.4959 27.3206 16.4935 27.3206 16.4913 27.3206C15.5667 27.5107 14.642 27.6034 13.7315 27.6034C13.081 27.6034 12.4379 27.557 11.806 27.4644C9.05063 27.0703 6.49589 25.8377 4.47368 23.9839C2.43093 22.1114 0.927409 19.6042 0.30723 16.6843C-0.458143 13.081 0.217439 9.39192 2.21171 6.29832C4.20621 3.20472 7.27989 1.0752 10.8675 0.30576C15.8043 -0.75312 20.6993 1.008 23.8812 4.50936Z" fill="#00FFB8"/>
<path fill-rule="evenodd" clip-rule="evenodd" d="M47.4529 16.6844C46.8581 19.4859 45.447 21.9771 43.404 23.8887C41.398 22.0071 38.8547 20.7466 36.1041 20.3199C38.3499 19.5924 40.1622 17.7132 40.6902 15.2314C41.4739 11.5397 39.1246 7.89245 35.4491 7.10477C31.8037 6.32381 28.2044 8.64101 27.3837 12.2813C27.3767 12.3116 27.3698 12.3394 27.3629 12.3694C27.1876 13.1921 27.1623 14.024 27.2891 14.8443C27.4804 16.0956 26.9825 17.2961 26.0786 18.0514C26.0003 18.114 25.9195 18.1767 25.8364 18.2345C25.7259 18.3111 25.6105 18.3828 25.4907 18.4455C25.2831 18.5566 25.0641 18.6471 24.8335 18.7119C24.7943 18.7234 24.7527 18.7352 24.7136 18.7467C24.672 18.756 24.6283 18.7652 24.5868 18.7745C24.5244 18.7884 24.4624 18.8 24.3979 18.8093C24.3492 18.8163 24.3009 18.8232 24.2524 18.8278C24.2154 18.8324 24.1787 18.8348 24.1416 18.8393C24.0979 18.8415 24.0564 18.8439 24.0127 18.8463C23.9227 18.8508 23.8352 18.8508 23.7474 18.8463C23.6669 18.8439 23.5883 18.8372 23.5076 18.8278C23.4615 18.8232 23.413 18.8163 23.3648 18.8093H23.36C23.307 18.8021 23.2564 18.793 23.2055 18.7812C23.2034 18.7812 23.201 18.7812 23.1964 18.7793C23.1733 18.7745 23.148 18.7697 23.1248 18.7628C23.0696 18.7512 23.0142 18.7376 22.9612 18.7212C21.6838 18.3783 20.667 17.3031 20.4526 15.9034C20.2682 14.7005 20.2429 13.489 20.3788 12.2837C20.4294 11.8275 20.501 11.3732 20.5978 10.9191C21.1258 8.4394 22.288 6.25661 23.8811 4.50941C27.0632 1.01021 31.9582 -0.753075 36.8948 0.305805C44.2988 1.89557 49.0348 9.24341 47.4529 16.6844Z" fill="#00D0AB"/>
<path fill-rule="evenodd" clip-rule="evenodd" d="M23.1257 18.763C23.1003 18.7584 23.0748 18.7538 23.0494 18.7469C23.0192 18.7397 22.9913 18.7306 22.9611 18.7214C23.0146 18.7378 23.0703 18.7514 23.1257 18.763Z" fill="#00D0AB"/>
<path fill-rule="evenodd" clip-rule="evenodd" d="M23.1976 18.7793C23.1467 18.7699 23.098 18.7608 23.0493 18.7466C23.0193 18.7397 22.9914 18.7306 22.9612 18.7214C23.0145 18.7375 23.0701 18.7514 23.1258 18.763C23.1489 18.7699 23.1743 18.7745 23.1976 18.7793Z" fill="#00D0AB"/>
<path fill-rule="evenodd" clip-rule="evenodd" d="M27.5382 36.0475V36.0499C27.499 36.3163 27.4505 36.5805 27.393 36.8445C26.8533 39.389 25.6428 41.6181 23.9897 43.3886C21.4326 46.1251 17.8147 47.7636 13.9687 47.7636C13.0211 47.7636 12.0597 47.664 11.0983 47.4576C7.51045 46.686 4.43678 44.5588 2.44251 41.4652C0.448006 38.3716 -0.227815 34.6826 0.537797 31.0792C1.1212 28.331 2.49075 25.8816 4.4738 23.9836C6.49601 25.8376 9.05051 27.0703 11.8061 27.4641C11.2688 27.6448 10.7501 27.8976 10.2613 28.2148C8.73242 29.2092 7.68335 30.743 7.30293 32.5298C6.92251 34.3188 7.25923 36.1495 8.24836 37.6857C9.2375 39.2198 10.7616 40.2765 12.5416 40.6588C15.9909 41.398 19.3989 39.3633 20.4549 36.0542V36.052C20.5239 35.8365 20.5817 35.6164 20.6302 35.3918C20.8031 34.5715 20.8284 33.737 20.7038 32.9191C20.411 31.0214 21.707 29.2461 23.5928 28.9543C23.729 28.9334 23.8627 28.9195 23.9964 28.9147C25.7259 28.8477 27.2683 30.0991 27.5405 31.8602C27.7526 33.2505 27.7526 34.6569 27.5382 36.0475Z" fill="#00D0AB"/>
<path fill-rule="evenodd" clip-rule="evenodd" d="M45.5483 41.4653C43.5562 44.5589 40.4828 46.686 36.8949 47.4576C35.9311 47.664 34.9604 47.766 33.9989 47.766C31.3773 47.766 28.8109 47.0081 26.5606 45.5436C25.6059 44.9249 24.7459 44.1996 23.9896 43.3887C25.6429 41.6182 26.8534 39.3891 27.3928 36.8446C27.4504 36.5804 27.4989 36.3163 27.5383 36.0499C28.5873 39.361 31.9999 41.3981 35.4492 40.6589C39.1247 39.8686 41.474 36.2235 40.69 32.5299C40.3096 30.7431 39.2582 29.2092 37.7319 28.2149C37.2247 27.8861 36.685 27.6264 36.1248 27.4457C34.9995 27.0749 33.7914 27.0101 32.6017 27.265C30.734 27.6634 28.8964 26.4704 28.4973 24.5907C28.4603 24.4172 28.4374 24.2432 28.4259 24.0718C28.4235 24.0137 28.4211 23.9559 28.4211 23.9002V23.8608C28.4211 23.803 28.4235 23.7473 28.4259 23.6895C28.5021 22.1554 29.5903 20.802 31.1581 20.466C32.8321 20.107 34.5038 20.0722 36.104 20.3201C38.8548 20.7466 41.3981 22.0071 43.4041 23.8887C45.3869 25.7496 46.8441 28.2149 47.453 31.0793C48.2205 34.6824 47.5428 38.3715 45.5483 41.4653Z" fill="#00FFB8"/>
</svg>
