<svg width="48" height="48" viewBox="0 0 48 48" fill="none" xmlns="http://www.w3.org/2000/svg">
<path fill-rule="evenodd" clip-rule="evenodd" d="M1.42857 21.4854C1.42857 21.9425 1.42761 22.3999 1.42857 22.8572C1.43621 26.0745 1.43669 29.2917 1.45842 32.5087C1.46224 33.0972 1.2626 33.3724 0.669406 33.3594C0.0592563 33.3463 0.00289811 32.9658 0.00385333 32.4722C0.0117339 28.2692 0.0205697 24.0656 3.24337e-05 19.8625C-0.00307204 19.2407 0.216391 19.0869 0.786659 19.034C1.6903 18.9503 2.18033 19.2828 2.58917 20.1357C3.66666 22.3829 4.85185 24.5759 6.00863 26.7824C6.09054 26.9387 6.27872 27.0537 6.44254 27.1337C6.47764 27.1509 6.646 26.9463 6.71096 26.8205C7.68887 24.9286 8.65961 23.0327 9.63299 21.1383C9.79752 20.8176 10.011 20.5158 10.1256 20.1776C10.443 19.2427 11.0534 18.9229 11.9886 19.044C12.4187 19.0999 12.6362 19.2144 12.6355 19.6858C12.6298 24.0191 12.6302 28.3521 12.6333 32.6849C12.6338 33.1807 12.4263 33.3545 11.9377 33.3535C11.4269 33.3522 11.2046 33.1949 11.2093 32.645C11.2392 29.2213 11.2533 25.7973 11.2667 22.373C11.2681 22.0548 11.2292 21.7367 11.1948 21.1959C10.9438 21.493 10.8153 21.5989 10.7446 21.736C9.50905 24.134 8.28564 26.5385 7.04744 28.9353C6.62761 29.7478 6.11036 29.7653 5.68958 28.9572C4.47932 26.6337 3.30129 24.2921 2.09747 21.9652C1.98117 21.7407 1.77221 21.5674 1.60624 21.3702C1.54702 21.4086 1.48779 21.447 1.42857 21.4854Z" fill="#00689F"/>
<path fill-rule="evenodd" clip-rule="evenodd" d="M11.0547 14.027C8.59121 14.1614 6.62345 11.8498 6.66596 9.42198C6.70536 7.17484 8.52578 4.9442 11.0932 5.00081C13.5961 5.0562 15.5233 7.00647 15.486 9.54383C15.4471 12.1784 13.3907 14.1654 11.0547 14.027Z" fill="#00659B"/>
<path fill-rule="evenodd" clip-rule="evenodd" d="M24.6445 -0.00338822C27.002 0.00547332 28.8583 1.96929 28.842 4.43723C28.8263 6.83673 26.9349 8.74861 24.5822 8.74295C22.2782 8.73778 20.3534 6.74837 20.3551 4.37372C20.3568 1.95993 22.2894 -0.0122498 24.6445 -0.00338822Z" fill="#0099CC"/>
<path fill-rule="evenodd" clip-rule="evenodd" d="M41.0346 9.57106C41.0735 12.0796 39.1029 13.829 36.8832 13.8726C34.5438 13.9184 32.6238 11.8783 32.6346 9.46251C32.6448 7.14398 34.525 5.18829 36.7487 5.18312C39.2493 5.17697 41.0279 6.99826 41.0346 9.57106Z" fill="#0097FB"/>
<path fill-rule="evenodd" clip-rule="evenodd" d="M43.6444 14.0498C45.878 14.0606 47.8438 16.0417 47.7586 18.3213C47.6709 20.6544 46.1275 22.5726 43.5616 22.5549C41.2602 22.5387 39.4269 20.6344 39.494 18.2701C39.5627 15.8455 41.3034 14.1013 43.6444 14.0498Z" fill="#00CAFF"/>
<path fill-rule="evenodd" clip-rule="evenodd" d="M43.6413 26.6472C45.999 26.6275 47.7105 28.4832 47.6639 30.8271C47.6176 33.1503 45.988 34.9731 43.5689 34.9536C41.3941 34.9362 39.6038 33.1796 39.5937 30.8677C39.5832 28.3843 41.3511 26.5696 43.6413 26.6472Z" fill="#FFCB00"/>
<path fill-rule="evenodd" clip-rule="evenodd" d="M35.8735 20.5792C34.7153 20.3968 33.6182 20.1251 32.514 20.0896C31.9039 20.0699 31.2037 20.3205 30.6802 20.6676C29.3599 21.5431 29.3541 23.312 30.6771 24.2329C31.7109 24.9526 32.8586 25.4969 33.9418 26.1433C34.9064 26.7188 35.767 27.3923 36.2504 28.5012C36.9976 30.2151 36.0779 32.4847 34.3698 33.123C32.4596 33.8368 30.5687 33.6935 28.675 33.0954C28.2069 32.9475 27.8683 31.8129 28.1935 31.4385C28.2783 31.3413 28.5864 31.3263 28.7091 31.407C29.9148 32.2016 31.2438 32.3235 32.6205 32.2297C33.6658 32.1588 34.5814 31.5395 34.8082 30.7414C35.1471 29.5486 34.8581 28.5876 33.8122 27.918C32.5164 27.0885 31.1325 26.4039 29.8475 25.5589C27.4948 24.0121 27.8301 20.9962 29.4707 19.8319C31.3398 18.5046 33.4339 18.4288 35.5328 19.1508C36.2828 19.4087 35.8313 20.1413 35.8735 20.5792Z" fill="#00689F"/>
<path fill-rule="evenodd" clip-rule="evenodd" d="M15.0099 19.2722C16.1094 18.8078 16.5273 18.9372 16.8741 19.9314C17.7223 22.3637 18.5314 24.8105 19.35 27.2535C19.7514 28.4516 20.135 29.6562 20.5374 30.8538C20.5904 31.0116 20.7083 31.1467 20.9185 31.495C21.1893 30.7255 21.4021 30.1284 21.6101 29.529C22.6322 26.5865 23.6542 23.6439 24.6728 20.7002C24.7991 20.3346 24.8533 19.9312 25.0377 19.6031C25.1695 19.3682 25.4408 19.1376 25.6905 19.0734C25.9544 19.0057 26.2665 19.1376 26.5577 19.1822C26.5151 19.4743 26.5185 19.7835 26.423 20.056C25.5714 22.4846 24.7014 24.9062 23.8384 27.3306C23.2082 29.1009 22.5897 30.8759 21.9442 32.6404C21.7916 33.0571 21.5666 33.432 21.0059 33.35C20.4822 33.2735 19.975 33.4229 19.7113 32.6318C18.5737 29.2149 17.3486 25.8288 16.1507 22.4334C15.7775 21.3754 15.3897 20.3231 15.0099 19.2722Z" fill="#00689F"/>
<path fill-rule="evenodd" clip-rule="evenodd" d="M38.2919 36.3929C40.3141 36.3092 41.7589 37.9382 41.7799 39.8548C41.8028 41.9476 40.3404 43.4767 38.3588 43.4801C36.302 43.4838 34.8842 41.9601 34.8273 39.8784C34.7836 38.2636 36.3129 36.1888 38.2919 36.3929Z" fill="#FF9700"/>
<path fill-rule="evenodd" clip-rule="evenodd" d="M24.8588 44.4224C24.8581 42.4142 26.2604 41.0291 28.2721 41.0503C30.0331 41.069 31.484 42.5506 31.4709 44.3552C31.4559 46.4475 30.0464 47.7917 28.2611 47.8429C26.3318 47.898 24.8042 46.4285 24.8588 44.4224Z" fill="#FD6800"/>
<path fill-rule="evenodd" clip-rule="evenodd" d="M18.817 47.5899C17.3882 47.7698 15.7175 46.0713 15.7242 44.4635C15.7314 42.7652 17.1687 41.2332 18.8139 41.2169C20.5127 41.2002 21.9129 42.6835 21.9007 44.4524C21.8885 46.1693 20.4912 47.5908 18.817 47.5899Z" fill="#FF0000"/>
<path fill-rule="evenodd" clip-rule="evenodd" d="M8.45596 39.9561C8.38121 38.1927 9.67984 37.2021 11.1394 37.2046C12.7509 37.2078 13.7419 38.5355 13.7837 39.9965C13.8246 41.4382 12.4731 42.7216 11.0308 42.6872C9.53178 42.651 8.44688 41.5002 8.45596 39.9561Z" fill="#F02000"/>
</svg>
