<svg width="48" height="48" viewBox="0 0 48 48" fill="none" xmlns="http://www.w3.org/2000/svg">
<path fill-rule="evenodd" clip-rule="evenodd" d="M40.7676 6.99487L34.6386 13.1226C34.4724 12.9562 34.2721 12.821 34.0502 12.7296L24.5751 8.80478C24.1302 8.62137 23.6309 8.62137 23.186 8.80478L13.7109 12.7296C13.489 12.821 13.2891 12.9562 13.1225 13.1226L6.9935 6.99487C7.25643 6.73313 7.56854 6.52227 7.9184 6.37755L22.7908 0.217075C23.4888 -0.0723582 24.2725 -0.0723582 24.9708 0.217075L39.8427 6.37755C40.1925 6.52227 40.5047 6.73313 40.7676 6.99487Z" fill="#FCB000"/>
<path fill-rule="evenodd" clip-rule="evenodd" d="M47.5442 24.9719L41.3849 39.8429C41.2404 40.1925 41.0293 40.5048 40.7676 40.7678C40.5047 41.0295 40.1925 41.2404 39.8427 41.3851L24.9708 47.5456C24.2725 47.8348 23.4888 47.8348 22.7907 47.5456L7.91839 41.3851C7.56878 41.2404 7.25642 41.0295 6.99349 40.7678C6.732 40.5048 6.5209 40.1925 6.37618 39.8429L0.216896 24.9719C-0.0722985 24.2739 -0.0722985 23.4887 0.216896 22.7907L6.37618 7.91977C6.5209 7.57111 6.732 7.2578 6.99349 6.99487L13.1224 13.1226C13.2891 12.9564 13.4893 12.8213 13.7109 12.7296L23.186 8.80478C23.6309 8.62138 24.1302 8.62138 24.5751 8.80478L34.0502 12.7296C34.2721 12.8213 34.4724 12.9564 34.6386 13.1226L40.7676 6.99487C41.0293 7.2578 41.2404 7.57111 41.3849 7.91977L47.5442 22.7907C47.8336 23.4887 47.8336 24.2739 47.5442 24.9719Z" fill="#3D6E6E"/>
<path fill-rule="evenodd" clip-rule="evenodd" d="M38.9565 24.5762L35.0317 34.0502C34.9403 34.272 34.8063 34.4721 34.6386 34.6386C34.4724 34.8062 34.2721 34.9399 34.0502 35.0328L24.5751 38.9576C24.1302 39.141 23.6309 39.141 23.186 38.9576L13.7109 35.0328C13.489 34.9399 13.2892 34.8062 13.1225 34.6386C12.9551 34.4721 12.8213 34.272 12.7296 34.0502L8.80462 24.5762C8.62026 24.1314 8.62026 23.6311 8.80462 23.1859L12.7296 13.712C12.8213 13.489 12.9551 13.29 13.1225 13.1226C13.2892 12.9562 13.489 12.821 13.7109 12.7293L23.186 8.80454C23.6309 8.62114 24.1302 8.62114 24.5751 8.80454L34.0502 12.7293C34.2721 12.821 34.4724 12.9562 34.6386 13.1226C34.8063 13.29 34.9403 13.489 35.0317 13.712L38.9565 23.1859C39.1409 23.6311 39.1409 24.1314 38.9565 24.5762Z" fill="white"/>
<path fill-rule="evenodd" clip-rule="evenodd" d="M31.0022 16.0715L24.3672 13.323C24.0556 13.1941 23.7055 13.1941 23.3943 13.323L16.7589 16.0715C16.4475 16.2004 16.2001 16.448 16.0711 16.7595L13.3227 23.3947C13.1935 23.7061 13.1935 24.0562 13.3227 24.3676L16.0711 31.0028C16.2001 31.3142 16.4475 31.5618 16.7589 31.6908L23.3943 34.4392C23.7055 34.5682 24.0556 34.5682 24.3672 34.4392L31.0022 31.6908C31.3139 31.5618 31.5613 31.3142 31.6902 31.0028L34.4386 24.3676C34.5678 24.0562 34.5678 23.7061 34.4386 23.3947L31.6902 16.7595C31.5613 16.448 31.3139 16.2004 31.0022 16.0715Z" fill="#3F7070"/>
</svg>
